<?xml version="1.0" encoding="UTF-8"?> <svg xmlns="http://www.w3.org/2000/svg" width="274" height="172" viewBox="0 0 274 172" fill="none"><path fill-rule="evenodd" clip-rule="evenodd" d="M109.977 0.340067C106.165 0.987551 101.046 3.39166 98.391 5.78245C97.2332 6.82449 95.5801 8.94745 94.7167 10.5007C93.1983 13.2328 93.1481 13.5507 93.1844 20.247C93.2176 26.3486 93.3907 27.6345 94.6441 31.094C97.6718 39.4516 103.391 47.6453 112.345 56.455C121.364 65.3276 133.951 74.8252 136.691 74.8252C139.43 74.8252 152.017 65.3276 161.036 56.455C169.969 47.666 175.669 39.507 178.755 31.0934C180.036 27.6004 180.196 26.4077 180.215 20.247C180.234 13.5661 180.18 13.2264 178.665 10.5007C176.655 6.88573 173.758 4.29419 169.511 2.3134C159.786 -2.22165 149.003 0.129743 140.595 8.61945L136.691 12.5613L132.817 8.67803C125.973 1.81608 118.134 -1.04542 109.977 0.340067ZM47.1105 59.1072C28.7121 62.4341 12.0661 75.6037 4.9223 92.4846C-10.233 128.298 13.1838 167.799 51.8949 171.724C68.9389 173.452 86.1923 167.092 104.901 152.185C113.159 145.605 123.055 136.182 137.493 121.15C165.019 92.4921 175.258 83.373 188.247 75.9504C198.584 70.0437 207.815 67.6156 218.168 68.0804C231.39 68.6741 242.739 73.9728 251.373 83.5838C259.391 92.5081 263.314 102.908 263.314 115.235C263.314 128.317 258.685 139.525 249.605 148.429C243.439 154.475 238.736 157.386 230.991 159.953C209.275 167.149 187.622 158.275 156.92 129.597L150.169 123.291L147.061 126.818L143.953 130.346L150.339 136.536C167.821 153.478 186.114 165.382 201.495 169.824C227.607 177.366 256.267 164.096 267.855 139.099C270.476 133.445 272.372 126.459 272.759 121.026C272.943 118.438 273.298 116.195 273.547 116.042C273.796 115.888 274 115.283 274 114.698C274 114.112 273.76 113.781 273.466 113.962C273.134 114.166 272.931 113.184 272.931 111.378C272.931 107.768 271.803 101.757 270.267 97.189C263.635 77.4604 246.439 62.6711 225.979 59.1003C207.362 55.8507 188.867 62.0209 168.449 78.2927C160.211 84.8575 151.962 92.6928 136.453 108.685C117.576 128.149 110.845 134.699 102.497 141.727C80.1844 160.511 61.3586 166.222 42.3907 159.959C35.6716 157.74 30.3902 154.593 25.2104 149.721C19.912 144.738 17.7375 141.886 14.847 136.131C9.00097 124.49 8.4106 109.224 13.3479 97.3679C19.1031 83.5487 30.433 73.5596 45.062 69.4068C48.6492 68.3887 50.5811 68.1976 57.0833 68.2162C63.9594 68.2364 65.371 68.4026 69.6388 69.6965C83.4659 73.887 100.248 84.9922 116.158 100.478L123.195 107.328L126.289 103.558L129.383 99.7896L126.225 96.5777C121.103 91.3686 110.889 82.5535 104.422 77.7607C82.9033 61.8127 64.7758 55.9124 47.1105 59.1072ZM0 115.293C0 116.025 0.121281 116.325 0.269276 115.959C0.417805 115.593 0.417805 114.994 0.269276 114.627C0.121281 114.262 0 114.561 0 115.293Z" fill="white"></path></svg> 