<?xml version="1.0" encoding="UTF-8"?> <svg xmlns="http://www.w3.org/2000/svg" width="319" height="319" viewBox="0 0 319 319" fill="none"><path fill-rule="evenodd" clip-rule="evenodd" d="M116.692 7.90821C109.755 14.8593 108.79 17.2881 108.79 27.7951C108.79 35.0839 110.57 43.2599 113.34 48.702C118.697 59.223 134.156 73.3278 149.252 81.4689L160.001 87.265L170.516 81.6738C199.856 66.0763 216.468 40.5447 210.758 19.8194C207.904 9.47075 196.561 -0.0116257 187.044 1.77326e-05C179.264 0.00933245 164.565 7.59384 164.565 11.5992C164.565 12.8986 162.473 13.9628 159.917 13.9628C157.36 13.9628 155.269 12.8986 155.269 11.5992C155.269 7.49837 140.489 0.00933245 132.378 1.77326e-05C126.617 -0.00696831 122.539 2.04926 116.692 7.90821ZM70.8076 118.695C23.0366 133.988 -7.03752 183.505 1.42163 232.938C15.5582 315.548 117.028 347.933 176.138 288.7C210.927 253.84 216.305 199.424 188.961 158.923C180.314 146.113 177.69 144.818 170.879 149.995C166.963 152.973 167.058 153.53 172.657 160.197C175.915 164.074 181.439 173.366 184.934 180.841C190.46 192.663 191.29 197.321 191.29 216.558C191.29 236.009 190.484 240.429 184.611 253.169C176.426 270.923 158.292 288.824 139.589 297.605C127.863 303.113 123.364 303.883 102.98 303.883C82.6295 303.883 78.0885 303.108 66.4525 297.643C47.8958 288.929 31.275 272.574 22.2023 254.11C15.3072 240.075 14.6704 236.904 14.6704 216.607C14.6704 197.195 15.4861 192.666 21.2263 180.219C29.0254 163.31 46.9686 144.767 63.4732 136.558C85.144 125.779 113.278 124.128 134.677 132.378C139.861 134.376 141.602 133.894 145.962 129.246L151.114 123.751L135.518 118.923C115.702 112.79 89.5386 112.699 70.8076 118.695ZM184.681 118.565C133.561 135.417 103.057 190.279 116.601 241.009C120.096 254.096 129.536 273.156 136.626 281.444C141.107 286.681 141.616 286.763 147.103 283.161L152.871 279.374L145.023 269.072C132.65 252.832 128.544 239.451 128.544 215.394C128.544 196.799 129.352 192.729 135.718 179.299C168.495 110.13 265.159 109.818 297.759 178.775C304.471 192.968 305.161 196.506 305.152 216.558C305.14 235.979 304.324 240.45 298.47 253.169C290.29 270.954 272.138 288.854 253.463 297.556C236.444 305.488 207.56 307.47 191.067 301.839C180.816 298.339 179.993 298.385 174.441 302.761L168.599 307.367L179.661 312.269C193.307 318.319 221.787 320.594 238.61 316.978C270.23 310.183 296.032 289.434 310.427 259.224C318.789 241.68 319.102 240.108 318.984 216.558C318.886 197.055 317.831 189.515 313.771 179.299C303.527 153.521 280.711 130.693 255.198 120.7C236.872 113.523 203.079 112.501 184.681 118.565Z" fill="white"></path></svg> 