<?xml version="1.0" encoding="UTF-8"?> <svg xmlns="http://www.w3.org/2000/svg" width="858" height="618" viewBox="0 0 858 618" fill="none"><path fill-rule="evenodd" clip-rule="evenodd" d="M839.596 2.17481C821.99 9.21181 813.686 21.4398 807.206 49.8728C802.434 70.8138 797.602 100.782 794.631 127.873C791.026 160.747 788.073 228.753 788.813 261.873C789.289 283.136 789.494 283.789 800.295 298.421C803.523 302.795 807.611 308.742 809.38 311.638C813.087 317.708 813.27 320.374 811.613 344.227C811.073 352.007 809.727 372.773 808.621 390.373C807.516 407.973 806.149 427.773 805.582 434.373C804.491 447.098 802.294 479.201 800.587 507.373C800.021 516.723 799.116 530.463 798.577 537.907C795.825 575.873 798.449 588.903 811.462 601.887C818.446 608.855 827.301 613.178 839.296 615.478C848.883 617.316 852.516 616.953 855.621 613.848C857.579 611.89 857.596 609.235 857.596 307.946V4.0178L854.961 1.94581C851.571 -0.721195 846.658 -0.64819 839.596 2.17481ZM8.7757 14.5728C6.2847 16.6428 5.87771 22.2598 3.06571 93.3728C2.21671 114.823 1.08369 141.159 0.546695 151.898C-0.299305 168.811 -0.216296 172.156 1.1687 176.898C4.3967 187.948 13.1737 200.724 26.0127 213.059L31.9307 218.745L30.7427 256.559C27.3647 364.143 26.3007 420.683 26.2017 497.873C26.0777 595.642 26.7127 605.972 33.1867 611.536C42.3707 619.428 67.2327 619.328 75.8207 611.366C81.0127 606.551 82.3077 595.18 83.2157 546.453C83.7807 516.154 82.3357 384.475 81.0637 350.373C80.7967 343.223 80.1397 320.048 79.6037 298.873C79.0667 277.698 78.3307 251.03 77.9667 239.61L77.3057 218.847L84.8957 211.11C95.7067 200.088 97.2187 198.235 102.037 190.109C109.262 177.924 109.138 179.275 107.782 127.393C107.12 102.082 106.069 66.9728 105.446 49.3728C104.388 19.4748 104.18 17.2248 102.28 15.1228C99.6947 12.2618 95.2607 12.2078 92.4637 15.0048C90.3667 17.1018 90.3437 17.5178 91.0207 41.2548C91.3997 54.5198 92.3557 80.4478 93.1467 98.8728C93.9377 117.298 94.5867 141.953 94.5897 153.663C94.5957 173.302 94.4337 175.271 92.5027 179.056C88.6557 186.595 83.3667 193.291 73.2947 203.373L63.3037 213.373L63.9497 234.373C64.3047 245.923 65.0267 272.923 65.5537 294.373C66.0817 315.823 66.7727 340.573 67.0897 349.373C70.4957 443.843 70.4427 580.18 66.9937 598.567C66.2267 602.656 64.1137 603.392 53.3327 603.325C47.9257 603.291 45.1347 602.836 44.1357 601.825C43.3477 601.026 42.1797 597.448 41.5407 593.873C39.8357 584.329 39.1777 473.047 40.4837 414.873C42.8597 308.95 45.1277 232.693 46.2617 220.545L46.8567 214.174L36.3597 203.773C26.1257 193.635 21.5337 187.849 16.7527 179.072C14.4457 174.835 14.4167 174.42 14.8527 151.572C15.0957 138.812 16.0297 113.073 16.9267 94.3728C20.9137 11.2988 20.7447 18.6428 18.7227 15.8728C16.4257 12.7268 11.7347 12.1128 8.7757 14.5728ZM27.5957 14.8728C25.6417 16.8268 25.5957 18.2058 25.5957 74.3728C25.5957 130.54 25.6417 131.919 27.5957 133.873C30.1667 136.444 33.6347 136.417 36.9607 133.8L39.5957 131.728V74.3388V16.9508L37.4067 14.9118C34.6207 12.3158 30.1697 12.2988 27.5957 14.8728ZM50.2307 14.9458L47.5957 17.0178V73.9908V130.964L50.0507 133.418C53.0237 136.391 56.8927 136.576 59.5957 133.873C61.5497 131.919 61.5957 130.54 61.5957 73.9298V15.9858L59.3727 14.4298C56.3437 12.3078 53.3707 12.4758 50.2307 14.9458ZM72.4567 14.7838L70.0957 16.6958V74.3728V132.049L72.4567 133.961C75.5617 136.475 79.8167 136.391 82.1907 133.768C84.0107 131.757 84.1067 129.121 84.3437 74.5798L84.5907 17.4968L82.4187 15.1848C79.7677 12.3618 75.6517 12.1968 72.4567 14.7838ZM837.096 19.6378C827.284 27.5608 821.782 41.7618 816.665 72.3728C816.205 75.1228 815.123 81.6478 814.26 86.8728C807.336 128.787 802.562 194.349 802.584 247.219C802.595 272.825 802.793 276.414 804.346 279.176C806.092 282.281 813.119 292.908 819.684 302.373C826.901 312.777 827.893 318.044 826.092 336.373C824.957 347.933 824.591 353.444 823.605 373.873C823.034 385.698 822.36 396.498 822.106 397.873C821.852 399.248 821.188 408.698 820.63 418.873C820.072 429.048 818.948 445.698 818.132 455.873C813.642 511.886 811.132 557.995 811.936 569.687C812.596 579.291 815.451 586.574 820.555 591.678C824.637 595.76 833.7 600.373 839.346 601.242L843.596 601.897L843.692 582.135C843.973 524.556 843.651 15.5938 843.333 15.2768C843.128 15.0708 840.321 17.0338 837.096 19.6378ZM301.596 82.8468C285.667 84.6378 264.245 91.0418 249.596 98.3908C234.34 106.046 231.346 107.962 218.018 118.601C187.457 142.997 167.984 175.001 158.834 215.873C156.525 226.184 156.259 229.493 156.259 247.873C156.259 266.358 156.518 269.53 158.888 280.14C165.78 310.985 178.178 334.986 200.542 360.779C205.204 366.156 223.746 382.907 252.007 407.276C258.662 413.014 263.594 417.303 271.096 423.873C273.922 426.348 277.556 429.498 279.172 430.873C283.667 434.698 296.552 445.865 301.654 450.359C304.161 452.566 308.886 456.666 312.154 459.468C321.152 467.184 365.273 505.379 372.096 511.36C377.521 516.115 385.977 523.419 401.596 536.838C404.621 539.436 414.746 548.258 424.096 556.441C439.659 570.061 441.409 571.31 444.795 571.225C447.426 571.159 449.446 570.263 451.795 568.121C454.758 565.418 459.056 561.632 469.665 552.381C471.552 550.736 477.933 545.223 483.846 540.131C489.759 535.039 499.433 526.707 505.346 521.615C511.259 516.523 517.446 511.179 519.096 509.74C522.525 506.749 529.352 500.833 538.56 492.873C542.06 489.848 546.762 485.753 549.009 483.774C551.257 481.794 563.446 471.239 576.096 460.318C602.69 437.36 629.841 413.797 637.093 407.385C638.344 406.279 643.086 402.223 647.631 398.373C652.175 394.523 657.023 390.355 658.404 389.11C659.786 387.865 663.432 384.739 666.506 382.163C677.238 373.172 693.231 356.198 700.948 345.608C715.252 325.98 725.587 302.635 730.712 278.373C732.667 269.121 733.041 264.354 733.066 248.373C733.097 228.626 732.451 223.239 727.97 205.873C718.726 170.049 697.574 138.465 667.596 115.722C655.527 106.566 654.193 105.739 639.596 98.3578C629.433 93.2188 613.972 87.9638 599.596 84.7618C590.233 82.6768 586.66 82.4298 566.596 82.4838C545.786 82.5398 543.253 82.7458 532.869 85.2198C513.451 89.8478 500.482 94.7968 483.596 104.022C475.281 108.565 460.009 120.371 450.396 129.687L444.697 135.21L437.872 128.772C413.719 105.987 387.2 91.9258 355.206 84.9398C344.027 82.4988 314.832 81.3588 301.596 82.8468ZM305.096 96.4808C287.617 99.0258 281.804 100.481 265.883 106.298C256.72 109.646 233.392 122.773 230.096 126.436C229.546 127.047 225.574 130.377 221.27 133.837C208.041 144.468 191.62 166.53 183.481 184.606C161.102 234.309 166.001 287.781 197.21 334.462C203.147 343.343 222.863 364.221 235.596 375.112C239.171 378.169 245.921 383.933 250.596 387.921C255.271 391.908 261.141 397.016 263.641 399.272C268.824 403.949 270.296 405.225 292.597 424.373C301.565 432.073 314.796 443.5 321.999 449.767C340.738 466.069 353.269 476.897 362.045 484.373C365.273 487.123 369.531 490.778 371.505 492.496C376.342 496.704 383.859 503.216 391.562 509.873C395.062 512.898 398.414 515.843 399.011 516.418C404.337 521.546 443.707 554.873 444.439 554.873C445.505 554.873 453.493 548.289 474.712 529.921C482.623 523.072 495.621 511.868 503.596 505.022C511.571 498.176 518.546 492.079 519.096 491.474C519.646 490.868 524.371 486.809 529.596 482.452C534.821 478.096 539.546 474.043 540.096 473.446C540.646 472.849 542.671 471.076 544.596 469.506C546.521 467.936 549.896 465.014 552.096 463.012C554.296 461.01 559.021 456.9 562.596 453.879C566.171 450.858 569.321 448.139 569.596 447.838C570.134 447.248 585.33 434.098 603.096 418.849C609.146 413.656 621.521 402.923 630.596 394.998C639.671 387.073 648.896 379.051 651.096 377.171C678.714 353.574 692.427 337.165 703.576 314.373C714.311 292.425 719.596 270.54 719.596 248.03C719.596 233.177 715.449 208.371 711.211 197.873C706.35 185.831 701.954 176.014 700.397 173.719C699.407 172.259 698.596 170.836 698.596 170.556C698.596 169.431 691.649 159.676 684.096 150.195C679.696 144.672 673.011 137.727 669.24 134.763C665.469 131.798 661.419 128.439 660.24 127.298C653.746 121.012 633.13 109.829 617.682 104.213C600.915 98.1168 589.92 96.4408 566.596 96.4268C549.006 96.4158 544.73 96.7278 536.475 98.6198C503.992 106.065 480.144 119.468 456.117 143.785C449.746 150.234 446.438 152.873 444.73 152.873C443.021 152.873 439.239 149.855 431.709 142.483C418.027 129.088 415.806 127.232 405.596 120.665C379.573 103.928 356.689 96.9818 325.596 96.3818C315.971 96.1958 306.746 96.2408 305.096 96.4808ZM308.076 121.337C292.881 124.56 280.246 129.053 265.596 136.443C258.359 140.094 240.195 153.471 233.109 160.37C228.685 164.676 217.758 177.625 214.542 182.373C209.678 189.554 200.596 207.765 200.596 210.338C200.596 213.063 204.522 216.873 207.329 216.873C211.468 216.873 212.79 215.489 216.664 207.103C231.707 174.544 261.682 149.295 298.596 138.09C306.191 135.785 321.786 133.151 332.94 132.29C338.751 131.842 341.278 131.191 342.69 129.779C345.106 127.363 345.145 122.68 342.767 120.528C339.929 117.96 322.034 118.377 308.076 121.337ZM546.346 120.586C543.939 123.26 544.154 127.121 546.846 129.575C548.612 131.184 551.032 131.767 558.096 132.285C582.785 134.095 607.443 141.826 625.482 153.41C626.37 153.98 628.463 155.33 630.134 156.41C651.814 170.418 670.022 194.91 678.173 221.027C681.674 232.248 682.806 233.873 687.119 233.873C690.685 233.873 694.596 231.088 694.596 228.549C694.596 220.751 680.303 189.111 671.624 177.697C644.964 142.637 603.854 120.764 561.596 119.156C549.126 118.681 547.962 118.79 546.346 120.586ZM824.534 196.722C821.988 198.784 821.989 198.768 819.664 248.373C819.045 261.573 818.303 274.972 818.015 278.147C817.525 283.546 817.685 284.116 820.467 286.897C824.032 290.463 825.656 290.6 829.05 287.623C831.585 285.4 831.633 285.087 833.036 261.373C833.816 248.173 834.733 228.731 835.072 218.169C835.664 199.723 835.608 198.885 833.642 196.919C831.099 194.376 827.527 194.299 824.534 196.722ZM686.901 251.862C685.473 252.451 684.522 253.921 684.177 256.07C683.343 261.281 681.407 273.895 680.6 279.373C680.196 282.123 680.245 285.391 680.71 286.635C682.418 291.204 690.32 292.125 692.521 288.012C693.72 285.773 697.596 263.883 697.596 259.354C697.596 253.566 692.101 249.717 686.901 251.862Z" fill="white"></path></svg> 